<svg width="66" height="66" viewBox="0 0 66 66" fill="none" xmlns="http://www.w3.org/2000/svg">
<g clip-path="url(#clip0_447_1922)">
<path fill-rule="evenodd" clip-rule="evenodd" d="M0.465151 65.8343L6.25706 1.75547L61.6376 3.46742L64.5194 61.3499L0.465151 65.8343ZM56.4733 5.9603L11.7205 7.62362L3.7383 59.5155L62.0707 59.2855L56.4733 5.9603ZM23.8472 18.3999L21.079 18.4641C21.079 18.4641 18.2556 35.5843 33.1686 35.2382C45.7882 34.9452 43.4443 17.929 43.4443 17.929L41.0752 17.933L41.8936 15.0414L49.8753 13.77L51.5708 17.7563L49.0714 17.8143C49.0714 17.8143 51.1369 38.5849 33.0779 39.0391C15.109 39.4892 18.6466 18.5206 18.6466 18.5206L16.5132 18.5701L15.7609 14.1253L25.0751 15.4318L23.8472 18.3999Z" fill="black"/>
</g>
<defs>
<clipPath id="clip0_447_1922">
<rect width="64" height="64" fill="white" transform="matrix(0.999731 -0.0232066 -0.0238454 0.999716 1.99121 1.85449)"/>
</clipPath>
</defs>
</svg>
