<svg width="65" height="65" viewBox="0 0 65 65" fill="none" xmlns="http://www.w3.org/2000/svg">
<g clip-path="url(#clip0_447_1916)">
<path d="M59.5283 14.9798C56.1683 14.9798 52.7523 18.3608 52.7523 21.7208L37.7723 22.9078L33.5753 12.4708C35.4243 11.8288 36.6473 10.4348 36.6473 8.1438C36.6473 4.8308 33.4293 0.945801 30.1163 0.945801C26.8033 0.945801 24.7783 4.4588 24.7783 7.7718C24.7783 10.0988 26.1053 11.6808 28.0413 12.4188L24.2193 23.9818L11.6173 24.9808C11.2553 22.2148 7.98632 20.0468 5.15332 20.0468C2.15032 20.0468 0.77832 22.4818 0.77832 25.4848C0.77832 28.4878 2.15732 30.8188 5.16032 30.8188C6.65232 30.8188 8.71532 30.2818 9.94632 29.3338L19.9993 36.7488L14.6683 52.8758C14.6433 52.8708 14.6193 52.8628 14.5933 52.8578C11.2043 52.2008 8.07932 53.6168 7.42232 57.0058C6.76532 60.3948 7.81932 64.2718 10.4953 64.7958C13.8833 65.4598 18.6223 63.6458 19.6943 59.3858C20.0053 58.1528 19.7653 57.0118 19.2853 56.0548L33.4173 46.6438L45.9303 55.7288C45.5693 56.4268 45.3613 57.2348 45.3613 58.1468C45.3613 61.4838 49.1493 64.9298 52.4863 64.9298C55.8233 64.9298 57.4453 61.3588 57.4453 58.0218C57.4453 54.6848 54.7403 52.8118 51.4033 52.8118C50.8693 52.8118 50.3533 52.8688 49.8593 52.9678L43.5203 37.2058L55.6283 25.8938C56.7283 26.3958 58.0333 26.6438 59.3603 26.6438C62.7193 26.6438 64.7773 25.8368 64.7773 22.4778C64.7783 19.1208 62.8873 14.9798 59.5283 14.9798ZM5.63832 27.6888C3.99432 27.6888 2.69932 25.7398 2.69932 24.3258C2.69932 22.9118 4.18632 22.1468 5.60132 22.1468C7.01532 22.1468 8.09332 23.3778 8.09332 24.7928C8.09232 26.2068 7.05232 27.6888 5.63832 27.6888ZM50.9963 55.0838C52.7683 55.0838 54.3203 56.2568 54.3203 58.0288C54.3203 59.8028 52.0623 61.8418 50.2903 61.8418C48.5163 61.8418 47.6733 59.9028 47.6733 58.1288C47.6733 56.3548 49.2223 55.0838 50.9963 55.0838ZM26.9033 6.4478C26.9033 5.0258 28.7173 3.1688 30.1393 3.1688C32.0343 3.1688 33.0903 5.5238 33.0903 6.9458C33.0903 8.3678 31.5613 9.2098 30.1393 9.2098C28.7173 9.2098 26.9033 8.4548 26.9033 6.4478ZM13.7043 62.3938C11.9843 62.3938 10.5903 61.4438 10.5903 59.7228C10.5903 58.0048 12.4653 56.2058 14.1863 56.2058C15.9053 56.2058 16.8193 58.2218 16.8193 59.9398C16.8193 61.6608 15.4243 62.3938 13.7043 62.3938ZM41.0913 36.9808L44.5913 50.3968L33.5083 43.5428L17.5753 50.9428L24.9033 34.0618L10.3613 27.0218L27.6743 27.3548L29.8503 13.9128L38.3203 28.0838L50.1333 24.2918L41.0913 36.9808ZM58.7063 23.7028C56.9833 23.7028 55.9903 22.3348 55.9903 20.6108C55.9903 18.8868 56.7973 17.1518 58.5203 17.1518C60.2453 17.1518 62.6533 18.8868 62.6533 20.6108C62.6533 22.3348 60.4293 23.7028 58.7063 23.7028Z" fill="white"/>
</g>
<defs>
<clipPath id="clip0_447_1916">
<rect width="64" height="64" fill="white" transform="translate(0.77832 0.896973)"/>
</clipPath>
</defs>
</svg>
