<svg width="65" height="65" viewBox="0 0 65 65" fill="none" xmlns="http://www.w3.org/2000/svg">
<g clip-path="url(#clip0_447_1934)">
<path d="M58.8203 38.8833L37.1213 40.4413L35.1203 24.7163C40.9043 23.0553 45.8203 16.5913 45.8203 10.6333C45.8203 3.7303 41.2233 0.133301 34.3203 0.133301C27.4173 0.133301 19.8203 4.7303 19.8203 11.6333C19.8203 17.9413 24.4983 23.9773 30.5713 24.9733L27.8393 41.1063L5.69531 42.6963L4.02531 51.0983L3.98631 51.0993L3.57031 53.3833L62.4453 55.6333L58.8203 38.8833ZM25.9033 12.2163C25.9033 6.9693 30.6933 4.1723 34.0683 4.1723C39.3153 4.1723 43.3203 7.3863 43.3203 12.6323C43.3203 16.7573 39.0673 21.1323 33.8203 21.1323C29.4373 21.1333 25.9033 17.4633 25.9033 12.2163ZM9.74131 45.5083H55.9503L55.2623 49.3933L10.3073 50.8893L9.74131 45.5083Z" fill="black"/>
<path d="M6.32031 64.1333H60.4453L61.5703 60.2583L3.57031 57.6333L6.32031 64.1333Z" fill="black"/>
</g>
<defs>
<clipPath id="clip0_447_1934">
<rect width="64" height="64" fill="white" transform="translate(0.570312 0.133301)"/>
</clipPath>
</defs>
</svg>
