<svg width="65" height="65" viewBox="0 0 65 65" fill="none" xmlns="http://www.w3.org/2000/svg">
<g clip-path="url(#clip0_447_1928)">
<path fill-rule="evenodd" clip-rule="evenodd" d="M45.7681 16.5864C39.4711 16.5864 34.9271 20.5424 32.6771 25.9864C29.1411 20.0344 21.8191 15.5864 15.1431 15.5864C5.92608 15.5864 0.455078 24.0574 0.455078 33.2744C0.455078 42.4904 6.92608 49.9624 16.1431 49.9624C22.7171 49.9624 29.4131 46.1574 32.7161 40.6334C35.8171 46.3294 42.8631 49.9624 49.7681 49.9624C58.9841 49.9614 64.4551 44.4894 64.4551 35.2744C64.4551 26.0574 54.9841 16.5864 45.7681 16.5864ZM18.7681 46.3364C12.2441 46.3364 6.95508 41.0474 6.95508 34.5244C6.95508 28.0004 13.2441 22.7114 19.7681 22.7114C26.2921 22.7114 30.5811 28.0004 30.5811 34.5244C30.5801 41.0474 25.2911 46.3364 18.7681 46.3364ZM45.4331 44.3364C39.8301 44.5864 34.6601 40.4734 34.6601 33.2404C34.6601 26.0074 39.3791 20.1444 46.4331 20.1444C53.4871 20.1444 58.2051 26.0074 58.2051 33.2404C58.2051 40.4734 52.4791 44.0224 45.4331 44.3364Z" fill="black"/>
</g>
<defs>
<clipPath id="clip0_447_1928">
<rect width="64" height="64" fill="white" transform="translate(0.455078 0.836426)"/>
</clipPath>
</defs>
</svg>
