<svg width="125" height="97" viewBox="0 0 125 97" fill="none" xmlns="http://www.w3.org/2000/svg">
<path fill-rule="evenodd" clip-rule="evenodd" d="M103.962 2C109.332 2 113.464 3.11458 116.421 5.00723C119.358 6.88778 121.193 9.57129 121.94 12.8548C123.45 19.4886 120.541 28.7547 112.678 38.692C97.0057 58.4979 62.1487 80.2826 7.33123 87.5086C6.78368 87.5807 6.39831 88.0831 6.47049 88.6307C6.54267 89.1782 7.04505 89.5636 7.5926 89.4914C62.7751 82.2174 98.1681 60.2521 114.246 39.933C122.258 29.8078 125.599 19.9177 123.89 12.4109C123.028 8.62402 120.886 5.49113 117.499 3.32285C114.131 1.16667 109.592 0 103.962 0C103.41 0 102.962 0.447715 102.962 1C102.962 1.55228 103.41 2 103.962 2ZM9.76282 78.6C10.0942 78.1582 10.0046 77.5314 9.56282 77.2C9.12099 76.8686 8.49419 76.9582 8.16282 77.4L0.600675 87.4829C-0.522352 88.9802 -0.0150753 91.1291 1.65903 91.9661L11.5156 96.8944C12.0096 97.1414 12.6103 96.9412 12.8572 96.4472C13.1042 95.9532 12.904 95.3526 12.41 95.1056L2.55346 90.1773C1.99542 89.8983 1.82633 89.182 2.20068 88.6829L9.76282 78.6Z" fill="black"/>
</svg>
