<svg width="36" height="37" viewBox="0 0 36 37" fill="none" xmlns="http://www.w3.org/2000/svg">
<g filter="url(#filter0_b_447_1981)">
<rect x="2.21387" y="24.3345" width="25.5117" height="25.5117" rx="12.7558" transform="rotate(-66.6211 2.21387 24.3345)" fill="white"/>
<rect x="2.21387" y="24.3345" width="25.5117" height="25.5117" rx="12.7558" transform="rotate(-66.6211 2.21387 24.3345)" stroke="black" stroke-width="2"/>
<path d="M21.0505 14.3164C20.4736 12.6815 19.2789 11.2521 17.7443 10.5887C14.9014 9.35972 12.203 10.6927 10.9385 13.6178C9.67377 16.5432 10.3086 19.9473 13.6811 21.4053C15.3474 22.1256 17.1389 22.0367 18.5931 21.2556C18.4231 25.0418 21.7109 25.9788 24.4675 27.6841L25.0561 26.3227L25.3288 25.6918L29.6976 15.5859L29.8471 15.2402L30.0229 14.8335C26.9445 13.7445 23.1472 11.8819 21.0505 14.3164ZM14.0545 20.0849C12.0093 19.2008 11.5825 16.9913 12.4923 14.8868C13.4021 12.7822 15.748 11.168 18.063 12.1688C19.6986 12.8759 20.6447 15.0084 19.7349 17.1129C18.7277 19.4419 16.0997 20.9691 14.0545 20.0849ZM24.536 25.341C22.3013 24.383 19.6234 23.3659 19.3149 20.7952C20.021 20.2513 20.6074 19.5143 21.0029 18.5993C21.3211 17.8633 21.4528 17.0682 21.4261 16.2705C23.1364 14.5802 24.1844 13.9944 28.1638 15.1171L24.536 25.341Z" fill="black"/>
</g>
<g filter="url(#filter1_b_447_1981)">
<rect y="25.582" width="25.5117" height="25.5117" rx="12.7558" transform="rotate(-66.6211 0 25.582)" fill="white"/>
<rect y="25.582" width="25.5117" height="25.5117" rx="12.7558" transform="rotate(-66.6211 0 25.582)" stroke="black" stroke-width="2"/>
<g clip-path="url(#clip0_447_1981)">
<path d="M18.7591 17.5279C18.7465 17.5275 18.7397 17.5273 18.7363 17.5273C18.7435 17.5273 18.7591 17.5279 18.7591 17.5279Z" fill="black"/>
<path d="M21.2215 20.9562C21.5365 20.5921 21.7337 20.1158 21.7337 19.5887C21.7337 17.9171 20.3398 17.5284 20.3398 17.5284C20.3398 17.5284 21.6881 14.6438 16.9542 14.6438C15.1351 14.6438 16.9542 12.5835 16.9542 12.5835C16.9542 12.5835 14.1075 12.989 12.971 14.6438C12.0461 15.9909 12.971 17.5284 12.971 17.5284C12.971 17.5284 11.3778 17.9555 11.3778 19.5887C11.3778 20.1156 11.575 20.5921 11.8904 20.9562C11.1281 21.2457 10.5811 21.996 10.5811 22.885C10.5811 24.0231 11.4725 24.9449 12.5726 24.9449L20.5384 25.3256C22.1297 25.3934 22.5302 24.0229 22.5302 22.885C22.5304 21.996 21.9836 21.2457 21.2215 20.9562ZM13.2926 15.6548C13.7399 14.3145 15.6849 14.0048 15.6849 14.0048C15.6849 14.0048 15.4886 15.1091 17.3526 15.2649C18.221 15.3375 18.76 15.684 18.9779 16.1009C19.2979 16.7132 18.9847 17.5406 18.5265 17.527L13.3947 17.5246C13.3947 17.5246 12.9735 16.6108 13.2926 15.6548ZM13.4744 18.378L19.9026 17.9611C20.6175 17.8375 21.2064 18.6015 21.2064 19.2844C21.2064 19.9668 20.5893 20.6149 19.9293 20.6149L13.7635 20.4185C13.1033 20.4185 12.3487 20.1188 12.3487 19.4369C12.3487 18.7537 12.8219 18.4264 13.4744 18.378ZM19.985 24.2862L12.5235 24.4964C11.6353 24.541 11.1538 23.9357 11.1538 23.2221C11.1538 22.5074 11.7957 21.903 12.4653 21.903L19.4269 21.3815C20.541 21.2857 21.2903 21.8126 21.2903 22.636C21.2903 23.5718 20.7705 24.2189 19.985 24.2862Z" fill="black"/>
</g>
</g>
<defs>
<filter id="filter0_b_447_1981" x="-77.7861" y="-79.0825" width="193.54" height="193.541" filterUnits="userSpaceOnUse" color-interpolation-filters="sRGB">
<feFlood flood-opacity="0" result="BackgroundImageFix"/>
<feGaussianBlur in="BackgroundImageFix" stdDeviation="40"/>
<feComposite in2="SourceAlpha" operator="in" result="effect1_backgroundBlur_447_1981"/>
<feBlend mode="normal" in="SourceGraphic" in2="effect1_backgroundBlur_447_1981" result="shape"/>
</filter>
<filter id="filter1_b_447_1981" x="-80" y="-77.835" width="193.54" height="193.541" filterUnits="userSpaceOnUse" color-interpolation-filters="sRGB">
<feFlood flood-opacity="0" result="BackgroundImageFix"/>
<feGaussianBlur in="BackgroundImageFix" stdDeviation="40"/>
<feComposite in2="SourceAlpha" operator="in" result="effect1_backgroundBlur_447_1981"/>
<feBlend mode="normal" in="SourceGraphic" in2="effect1_backgroundBlur_447_1981" result="shape"/>
</filter>
<clipPath id="clip0_447_1981">
<rect width="12.3762" height="12.8029" fill="white" transform="translate(10.582 12.5337)"/>
</clipPath>
</defs>
</svg>
