<svg width="78" height="77" viewBox="0 0 78 77" fill="none" xmlns="http://www.w3.org/2000/svg">
<g filter="url(#filter0_b_447_2029)">
<rect x="5.21289" y="29.1289" width="52.7516" height="52.7516" rx="26.3758" transform="rotate(-30 5.21289 29.1289)" fill="white"/>
<rect x="5.21289" y="29.1289" width="52.7516" height="52.7516" rx="26.3758" transform="rotate(-30 5.21289 29.1289)" stroke="black" stroke-width="2"/>
<path d="M44.9123 37.31C45.4245 35.6537 45.3183 33.7938 44.4824 32.346C42.9338 29.6638 39.9729 29.1239 37.2131 30.7173C34.453 32.3108 32.9319 35.4216 34.7689 38.6035C35.6766 40.1757 37.1675 41.1729 38.8006 41.4135C36.4056 44.3509 38.4854 47.0642 39.6807 50.0772L40.9651 49.3356L41.5604 48.992L51.0951 43.4871L51.4213 43.2987L51.805 43.0772C49.984 40.3669 48.0474 36.6068 44.9123 37.31ZM35.8562 37.7666C34.7422 35.8369 35.7176 33.8091 37.7032 32.6627C39.6889 31.5163 42.5345 31.6201 43.7956 33.8042C44.6865 35.3475 44.1738 37.6233 42.1882 38.7697C39.9905 40.0381 36.9703 39.6962 35.8562 37.7666ZM41.1334 48.2375C39.9112 46.1355 38.3686 43.7218 39.6545 41.4746C40.5457 41.4593 41.456 41.2175 42.3193 40.7191C43.0137 40.3181 43.5936 39.7586 44.0481 39.1024C46.429 38.766 47.6196 38.921 50.1438 42.1959L41.1334 48.2375Z" fill="black"/>
</g>
<g filter="url(#filter1_b_447_2029)">
<rect y="28.4683" width="52.7516" height="52.7516" rx="26.3758" transform="rotate(-30 0 28.4683)" fill="black"/>
<g clip-path="url(#clip0_447_2029)">
<path d="M42.9577 38.3406C43.6024 39.4572 43.7944 40.6283 43.5339 41.8539C43.2733 43.0795 42.6176 44.1222 41.5668 44.9819L42.6729 46.8975C42.7318 46.9997 42.7475 47.1026 42.7197 47.2062C42.6919 47.3098 42.627 47.3911 42.5248 47.4501L41.047 48.3033C40.9521 48.358 40.85 48.3708 40.7407 48.3415C40.6313 48.3122 40.5492 48.2501 40.4945 48.1552L39.3885 46.2395C38.8689 46.4519 38.3383 46.6074 37.7968 46.706C37.2553 46.8046 36.7912 46.856 36.4045 46.8604C36.0178 46.8647 35.6467 46.8454 35.2911 46.8026C34.9355 46.7598 34.6869 46.7209 34.5451 46.686C34.4033 46.6511 34.3015 46.6223 34.2397 46.5996C34.0272 46.5179 33.9335 46.3725 33.9587 46.1634L34.233 44.0346C34.242 43.9321 34.3006 43.8399 34.409 43.7579C34.51 43.6801 34.6165 43.6624 34.7286 43.7047L34.7631 43.714C36.0049 43.9604 37.1549 43.9045 38.2131 43.5465C38.5169 43.449 38.8037 43.3223 39.0738 43.1664C39.6649 42.8252 40.0943 42.368 40.3619 41.7951C40.6295 41.2222 40.5969 40.6475 40.2641 40.0709C40.1461 39.8666 39.9797 39.7048 39.7649 39.5856C39.5501 39.4663 39.3394 39.3836 39.1327 39.3375C38.9261 39.2914 38.6337 39.2778 38.2554 39.2968C37.8771 39.3157 37.5688 39.338 37.3306 39.3636C37.0924 39.3892 36.7321 39.4392 36.2495 39.5134C35.8975 39.561 35.6204 39.5993 35.4183 39.6284C35.2162 39.6576 34.9359 39.6904 34.5776 39.727C34.2192 39.7636 33.9259 39.7822 33.6975 39.7827C33.4691 39.7832 33.1882 39.7727 32.8546 39.7512C32.5211 39.7297 32.2364 39.6873 32.0004 39.6241C31.7644 39.5608 31.5025 39.4737 31.2145 39.3626C30.9266 39.2515 30.6749 39.1147 30.4594 38.9521C30.2439 38.7894 30.0271 38.591 29.8092 38.3568C29.5913 38.1226 29.3959 37.8559 29.2232 37.5567C28.6417 36.5496 28.4895 35.4601 28.7665 34.2882C29.0435 33.1164 29.6917 32.0902 30.711 31.2098L29.5734 29.2394C29.5186 29.1445 29.5059 29.0424 29.5352 28.933C29.5645 28.8237 29.6266 28.7416 29.7215 28.6868L31.1993 27.8336C31.3014 27.7746 31.4043 27.759 31.5079 27.7868C31.6115 27.8146 31.6928 27.8795 31.7518 27.9817L32.8641 29.9083C33.3054 29.7119 33.757 29.5631 34.2191 29.4617C34.6812 29.3604 35.0692 29.2993 35.3832 29.2786C35.6972 29.2578 36.0079 29.2609 36.3153 29.2878C36.6227 29.3146 36.8261 29.3383 36.9255 29.3587C37.0249 29.3792 37.1091 29.3987 37.1782 29.4172C37.3781 29.4769 37.4764 29.605 37.4731 29.8015L37.5091 31.9117C37.5139 32.0549 37.4637 32.1617 37.3585 32.2322C37.2689 32.3131 37.1557 32.3444 37.0187 32.3262C36.9841 32.317 36.9059 32.3037 36.7841 32.2865C36.6623 32.2693 36.4641 32.2547 36.1897 32.2429C35.9153 32.231 35.6344 32.2375 35.3471 32.2623C35.0598 32.2871 34.7331 32.3492 34.3672 32.4485C34.0013 32.5479 33.6651 32.6861 33.3586 32.863C32.6653 33.2633 32.1903 33.7467 31.9336 34.3133C31.6769 34.8799 31.6919 35.4114 31.9784 35.9076C32.0879 36.0974 32.22 36.2546 32.3748 36.3793C32.5295 36.5041 32.7246 36.5934 32.96 36.6472C33.1954 36.701 33.409 36.7382 33.6009 36.7588C33.7928 36.7794 34.0625 36.7745 34.4099 36.7442C34.7573 36.7139 35.0349 36.685 35.2428 36.6574C35.4507 36.6298 35.764 36.5827 36.1829 36.516C36.6539 36.4387 37.0158 36.383 37.2686 36.3489C37.5214 36.3149 37.8725 36.2825 38.3218 36.2517C38.7711 36.221 39.1361 36.217 39.4168 36.2398C39.6976 36.2626 40.0291 36.3144 40.4115 36.3953C40.7939 36.4762 41.1211 36.5962 41.393 36.7554C41.665 36.9147 41.9411 37.1275 42.2213 37.3938C42.5016 37.6601 42.7471 37.9757 42.9577 38.3406Z" fill="white"/>
</g>
</g>
<defs>
<filter id="filter0_b_447_2029" x="-74.7871" y="-77.2471" width="232.06" height="232.06" filterUnits="userSpaceOnUse" color-interpolation-filters="sRGB">
<feFlood flood-opacity="0" result="BackgroundImageFix"/>
<feGaussianBlur in="BackgroundImageFix" stdDeviation="40"/>
<feComposite in2="SourceAlpha" operator="in" result="effect1_backgroundBlur_447_2029"/>
<feBlend mode="normal" in="SourceGraphic" in2="effect1_backgroundBlur_447_2029" result="shape"/>
</filter>
<filter id="filter1_b_447_2029" x="-80" y="-77.9077" width="232.06" height="232.06" filterUnits="userSpaceOnUse" color-interpolation-filters="sRGB">
<feFlood flood-opacity="0" result="BackgroundImageFix"/>
<feGaussianBlur in="BackgroundImageFix" stdDeviation="40"/>
<feComposite in2="SourceAlpha" operator="in" result="effect1_backgroundBlur_447_2029"/>
<feBlend mode="normal" in="SourceGraphic" in2="effect1_backgroundBlur_447_2029" result="shape"/>
</filter>
<clipPath id="clip0_447_2029">
<rect width="12.1345" height="22.6511" fill="white" transform="translate(25.1133 31.3477) rotate(-30)"/>
</clipPath>
</defs>
</svg>
