<svg width="101" height="101" viewBox="0 0 101 101" fill="none" xmlns="http://www.w3.org/2000/svg">
<g filter="url(#filter0_b_447_1997)">
<rect width="66.5069" height="66.5069" rx="33.2535" transform="matrix(-0.751768 -0.659427 -0.659427 0.751768 93.8545 46.8687)" fill="white"/>
<rect width="66.5069" height="66.5069" rx="33.2535" transform="matrix(-0.751768 -0.659427 -0.659427 0.751768 93.8545 46.8687)" stroke="black" stroke-width="2"/>
<path d="M43.6165 47.7785C43.4374 46.0542 43.9046 44.2508 45.007 42.9939C47.0494 40.6656 50.0587 40.7141 52.4544 42.8155C54.8504 44.9172 55.735 48.265 53.3122 51.0271C52.1151 52.3919 50.4582 53.0789 48.8095 52.9961C50.5851 56.3445 48.0157 58.5996 46.2553 61.3214L45.1403 60.3433L44.6236 59.8901L36.3468 52.6299L36.0636 52.3816L35.7306 52.0894C38.0456 49.7867 40.6789 46.4769 43.6165 47.7785ZM52.4092 49.994C53.8785 48.319 53.3176 46.1397 51.5939 44.6278C49.8703 43.1159 47.0591 42.6622 45.396 44.5582C44.2209 45.8978 44.2796 48.23 46.0032 49.7419C47.911 51.4149 50.9399 51.6691 52.4092 49.994ZM45.1897 59.2335C46.7986 57.4105 48.7826 55.3443 47.9602 52.8893C47.0891 52.7004 46.2435 52.2855 45.4941 51.6282C44.8914 51.0994 44.4318 50.4374 44.1142 49.7052C41.8447 48.9105 40.6467 48.8301 37.5319 51.5492L45.1897 59.2335Z" fill="black"/>
</g>
<g filter="url(#filter1_b_447_1997)">
<rect width="66.5069" height="66.5069" rx="33.2535" transform="matrix(-0.751768 -0.659427 -0.659427 0.751768 100.463 47.335)" fill="white"/>
<rect width="66.5069" height="66.5069" rx="33.2535" transform="matrix(-0.751768 -0.659427 -0.659427 0.751768 100.463 47.335)" stroke="black" stroke-width="2"/>
<g clip-path="url(#clip0_447_1997)">
<path d="M49.4468 46.2277C49.4774 46.2329 49.4938 46.2357 49.502 46.2373C49.4847 46.2339 49.4468 46.2277 49.4468 46.2277Z" fill="black"/>
<path d="M49.5017 46.2366C49.5134 46.2384 49.5115 46.238 49.5017 46.2366V46.2366Z" fill="black"/>
<path d="M42.0208 52.9459C41.438 51.9595 41.1868 50.7707 41.428 49.5585C42.1931 45.7143 45.6871 45.4804 45.6871 45.4804C45.6871 45.4804 43.7999 38.208 55.062 40.4495C59.3897 41.3108 56.005 35.7114 56.005 35.7114C56.005 35.7114 62.5919 37.9918 64.5382 42.3355C66.1221 45.8714 63.2179 48.9694 63.2179 48.9694C63.2179 48.9694 66.8128 50.706 66.0653 54.4619C65.8241 55.6737 65.1367 56.6761 64.2197 57.3641C65.9008 58.3907 66.8588 60.3754 66.4519 62.4199C65.931 65.0371 63.3882 66.7349 60.771 66.214L41.6458 63.3178C37.829 62.7203 37.5035 59.3789 38.0243 56.7621C38.4308 54.7175 40.0752 53.2508 42.0208 52.9459ZM63.3104 44.5083C62.8597 41.2142 58.3743 39.5811 58.3743 39.5811C58.3743 39.5811 58.3358 42.2135 53.83 41.6893C51.7307 41.4451 50.2899 41.9867 49.5806 42.8423C48.539 44.099 48.9056 46.1501 50.0017 46.3357L62.2116 48.7601C62.2116 48.7601 63.6319 46.858 63.3104 44.5083ZM61.6315 50.6849L46.5292 46.6825C44.885 46.0597 43.1345 47.5378 42.8219 49.1084C42.5096 50.6777 43.6809 52.4604 45.2511 52.7729L60.0098 55.2406C61.5804 55.5532 63.5127 55.2213 63.8248 53.653C64.1375 52.0819 63.1616 51.1052 61.6315 50.6849ZM43.4382 61.1894L61.0931 65.2059C63.1857 65.729 64.6083 64.5649 64.9349 62.9239C65.2621 61.2801 64.0118 59.5864 62.4186 59.2693L46.0954 54.7737C43.4889 54.0259 41.465 54.8828 41.0882 56.7764C40.6599 58.9285 41.6003 60.6629 43.4382 61.1894Z" fill="black"/>
</g>
</g>
<line x1="20.9159" y1="28.5504" x2="27.6307" y2="29.2219" stroke="black" stroke-width="2"/>
<line x1="25.628" y1="24.5227" x2="31.6714" y2="25.1942" stroke="black" stroke-width="2"/>
<line x1="16.8975" y1="35.9378" x2="22.9409" y2="36.6092" stroke="black" stroke-width="2"/>
<line x1="14.212" y1="48.0247" x2="20.2553" y2="48.6962" stroke="black" stroke-width="2"/>
<defs>
<filter id="filter0_b_447_1997" x="-80" y="-76.9878" width="253.854" height="253.854" filterUnits="userSpaceOnUse" color-interpolation-filters="sRGB">
<feFlood flood-opacity="0" result="BackgroundImageFix"/>
<feGaussianBlur in="BackgroundImageFix" stdDeviation="40"/>
<feComposite in2="SourceAlpha" operator="in" result="effect1_backgroundBlur_447_1997"/>
<feBlend mode="normal" in="SourceGraphic" in2="effect1_backgroundBlur_447_1997" result="shape"/>
</filter>
<filter id="filter1_b_447_1997" x="-73.3916" y="-76.5215" width="253.854" height="253.854" filterUnits="userSpaceOnUse" color-interpolation-filters="sRGB">
<feFlood flood-opacity="0" result="BackgroundImageFix"/>
<feGaussianBlur in="BackgroundImageFix" stdDeviation="40"/>
<feComposite in2="SourceAlpha" operator="in" result="effect1_backgroundBlur_447_1997"/>
<feBlend mode="normal" in="SourceGraphic" in2="effect1_backgroundBlur_447_1997" result="shape"/>
</filter>
<clipPath id="clip0_447_1997">
<rect width="30.0209" height="30.0209" fill="white" transform="matrix(-0.980764 -0.195197 -0.195197 0.980764 71.1875 38.6138)"/>
</clipPath>
</defs>
</svg>
