<svg width="95" height="94" viewBox="0 0 95 94" fill="none" xmlns="http://www.w3.org/2000/svg">
<g filter="url(#filter0_b_447_2018)">
<rect width="64.2271" height="64.2271" rx="32.1135" transform="matrix(-0.866025 -0.5 -0.5 0.866025 87.7354 35.4648)" fill="white"/>
<rect width="64.2271" height="64.2271" rx="32.1135" transform="matrix(-0.866025 -0.5 -0.5 0.866025 87.7354 35.4648)" stroke="black" stroke-width="2"/>
<path d="M40.1981 45.746C39.6859 44.0898 39.7921 42.2299 40.628 40.782C42.1766 38.0998 45.1375 37.5599 47.8973 39.1533C50.6574 40.7469 52.1785 43.8577 50.3414 47.0396C49.4338 48.6117 47.9429 49.609 46.3097 49.8495C48.7048 52.787 46.625 55.5002 45.4297 58.5133L44.1452 57.7717L43.55 57.428L34.0152 51.9231L33.689 51.7348L33.3053 51.5133C35.1264 48.8029 37.063 45.0428 40.1981 45.746ZM49.2541 46.2026C50.3682 44.273 49.3927 42.2451 47.4071 41.0987C45.4215 39.9523 42.5758 40.0561 41.3148 42.2403C40.4238 43.7835 40.9366 46.0594 42.9222 47.2058C45.1199 48.4742 48.1401 48.1322 49.2541 46.2026ZM43.977 56.6735C45.1992 54.5716 46.7417 52.1579 45.4558 49.9106C44.5646 49.8953 43.6544 49.6535 42.7911 49.1551C42.0967 48.7542 41.5167 48.1946 41.0623 47.5385C38.6813 47.2021 37.4907 47.3571 34.9666 50.6319L43.977 56.6735Z" fill="black"/>
</g>
<g filter="url(#filter1_b_447_2018)">
<rect width="64.2271" height="64.2271" rx="32.1135" transform="matrix(-0.866025 -0.5 -0.5 0.866025 94.082 34.6606)" fill="white"/>
<rect width="64.2271" height="64.2271" rx="32.1135" transform="matrix(-0.866025 -0.5 -0.5 0.866025 94.082 34.6606)" stroke="black" stroke-width="2"/>
<g clip-path="url(#clip0_447_2018)">
<path d="M44.6983 44.4777C44.7279 44.4688 44.7439 44.4641 44.752 44.4619C44.735 44.4665 44.6983 44.4777 44.6983 44.4777Z" fill="black"/>
<path d="M44.752 44.4614C44.7632 44.4579 44.7614 44.4584 44.752 44.4614V44.4614Z" fill="black"/>
<path d="M41.0107 53.788C40.0517 53.1612 39.3004 52.2062 38.9805 51.0123C37.9661 47.2262 40.9961 45.4708 40.9961 45.4708C40.9961 45.4708 36.0864 39.7836 47.1781 36.8116C51.4404 35.6695 45.9278 32.1452 45.9278 32.1452C45.9278 32.1452 52.8438 31.2764 56.5109 34.3109C59.4956 36.7813 58.2616 40.8445 58.2616 40.8445C58.2616 40.8445 62.2538 40.8116 63.245 44.5106C63.5648 45.7041 63.3918 46.9072 62.8738 47.9298C64.8355 48.1069 66.5727 49.463 67.1123 51.4765C67.8029 54.0541 66.2736 56.7017 63.696 57.3923L45.2628 63.2557C41.5754 64.4083 39.8053 61.5556 39.1148 58.9784C38.5748 56.965 39.4007 54.9221 41.0107 53.788ZM56.371 36.8027C54.5096 34.0478 49.7645 34.5675 49.7645 34.5675C49.7645 34.5675 50.8945 36.9454 46.6217 38.4686C44.631 39.1783 43.5785 40.3014 43.3208 41.3825C42.9426 42.9703 44.1787 44.6476 45.2439 44.3292L57.2666 41.1019C57.2666 41.1019 57.6988 38.7677 56.371 36.8027ZM57.5978 43.0848L42.2831 46.1763C40.533 46.3451 39.617 48.4452 40.0315 49.992C40.4456 51.5375 42.2847 52.6182 43.8311 52.2038L58.1588 47.8878C59.7056 47.4734 61.2917 46.3209 60.8779 44.7763C60.4633 43.229 59.1559 42.7848 57.5978 43.0848ZM45.9287 60.5539L63.5389 56.3457C65.647 55.8891 66.4078 54.2157 65.9748 52.5996C65.541 50.9807 63.6704 50.0148 62.1013 50.4352L45.4735 53.6246C42.8051 54.107 41.3691 55.7709 41.8688 57.6358C42.4368 59.7554 44.0474 60.8948 45.9287 60.5539Z" fill="black"/>
</g>
</g>
<line x1="11.7823" y1="45.4666" x2="17.6185" y2="46.115" stroke="black" stroke-width="2"/>
<line x1="14.3761" y1="35.9685" x2="20.2122" y2="36.617" stroke="black" stroke-width="2"/>
<defs>
<filter id="filter0_b_447_2018" x="-80" y="-76.6489" width="247.735" height="247.736" filterUnits="userSpaceOnUse" color-interpolation-filters="sRGB">
<feFlood flood-opacity="0" result="BackgroundImageFix"/>
<feGaussianBlur in="BackgroundImageFix" stdDeviation="40"/>
<feComposite in2="SourceAlpha" operator="in" result="effect1_backgroundBlur_447_2018"/>
<feBlend mode="normal" in="SourceGraphic" in2="effect1_backgroundBlur_447_2018" result="shape"/>
</filter>
<filter id="filter1_b_447_2018" x="-73.6533" y="-77.4531" width="247.735" height="247.736" filterUnits="userSpaceOnUse" color-interpolation-filters="sRGB">
<feFlood flood-opacity="0" result="BackgroundImageFix"/>
<feGaussianBlur in="BackgroundImageFix" stdDeviation="40"/>
<feComposite in2="SourceAlpha" operator="in" result="effect1_backgroundBlur_447_2018"/>
<feBlend mode="normal" in="SourceGraphic" in2="effect1_backgroundBlur_447_2018" result="shape"/>
</filter>
<clipPath id="clip0_447_2018">
<rect width="30.0209" height="30.0209" fill="white" transform="matrix(-0.965926 0.258819 0.258819 0.965926 60.8281 28.0312)"/>
</clipPath>
</defs>
</svg>
