<svg width="190" height="235" viewBox="0 0 190 235" fill="none" xmlns="http://www.w3.org/2000/svg">
<path fill-rule="evenodd" clip-rule="evenodd" d="M141.961 5.41216C152.012 2.26826 160.492 1.90532 167.277 3.75641C174.041 5.60159 179.189 9.66275 182.593 15.5141C189.437 27.276 189.311 46.4418 180.474 69.4809C162.831 115.478 110.737 176.106 13.3485 221.267C12.8475 221.5 12.6297 222.094 12.862 222.595C13.0943 223.096 13.6889 223.314 14.1899 223.082C111.912 177.765 164.465 116.805 182.341 70.1972C191.264 46.9343 191.616 27.0441 184.322 14.5083C180.658 8.21072 175.083 3.81254 167.804 1.82691C160.547 -0.152805 151.663 0.281984 141.364 3.50336C140.837 3.66823 140.543 4.22918 140.708 4.75629C140.873 5.28339 141.434 5.57703 141.961 5.41216ZM11.4127 202.215C11.5971 201.694 11.3245 201.123 10.8039 200.938C10.2833 200.754 9.71182 201.027 9.52745 201.547L0.621253 226.696C-0.00356178 228.461 1.12207 230.36 2.96972 230.659L26.2762 234.432C26.8214 234.521 27.3349 234.15 27.4232 233.605C27.5114 233.06 27.141 232.546 26.5958 232.458L3.28935 228.685C2.67346 228.585 2.29826 227.952 2.50653 227.364L11.4127 202.215Z" fill="black"/>
</svg>
