<svg width="146" height="145" viewBox="0 0 146 145" fill="none" xmlns="http://www.w3.org/2000/svg">
<g filter="url(#filter0_b_447_2089)">
<rect width="99.0447" height="99.0447" rx="49.5223" transform="matrix(-0.866025 -0.5 -0.5 0.866025 135.298 54.6905)" fill="white"/>
<rect width="99.0447" height="99.0447" rx="49.5223" transform="matrix(-0.866025 -0.5 -0.5 0.866025 135.298 54.6905)" stroke="black" stroke-width="2"/>
<path d="M63.9793 71.3439C63.4671 69.6877 63.5733 67.8278 64.4092 66.3799C65.9578 63.6977 68.9187 63.1578 71.6785 64.7512C74.4386 66.3448 75.9597 69.4556 74.1227 72.6375C73.215 74.2096 71.7241 75.2069 70.091 75.4474C72.486 78.3849 70.4062 81.0981 69.2109 84.1112L67.9265 83.3696L67.3312 83.0259L57.7965 77.521L57.4703 77.3327L57.0866 77.1112C58.9076 74.4008 60.8443 70.6407 63.9793 71.3439ZM73.0354 71.8005C74.1495 69.8709 73.174 67.843 71.1884 66.6966C69.2027 65.5502 66.3571 65.654 65.096 67.8382C64.2051 69.3814 64.7178 71.6573 66.7034 72.8037C68.9011 74.0721 71.9213 73.7301 73.0354 71.8005ZM67.7582 82.2714C68.9804 80.1695 70.523 77.7558 69.2371 75.5085C68.3459 75.4932 67.4356 75.2514 66.5723 74.753C65.8779 74.3521 65.298 73.7925 64.8435 73.1364C62.4626 72.8 61.272 72.955 58.7478 76.2298L67.7582 82.2714Z" fill="black"/>
</g>
<g filter="url(#filter1_b_447_2089)">
<rect width="99.0447" height="99.0447" rx="49.5223" transform="matrix(-0.866025 -0.5 -0.5 0.866025 145.085 53.4503)" fill="white"/>
<rect width="99.0447" height="99.0447" rx="49.5223" transform="matrix(-0.866025 -0.5 -0.5 0.866025 145.085 53.4503)" stroke="black" stroke-width="2"/>
<g clip-path="url(#clip0_447_2089)">
<path d="M71.9199 69.6392C71.9496 69.6303 71.9656 69.6255 71.9736 69.6234C71.9567 69.6279 71.9199 69.6392 71.9199 69.6392Z" fill="black"/>
<path d="M71.9737 69.6229C71.9849 69.6194 71.9831 69.6199 71.9737 69.6229V69.6229Z" fill="black"/>
<path d="M68.2324 78.9494C67.2733 78.3226 66.5221 77.3676 66.2022 76.1737C65.1877 72.3877 68.2177 70.6322 68.2177 70.6322C68.2177 70.6322 63.3081 64.9451 74.3998 61.9731C78.6621 60.831 73.1495 57.3067 73.1495 57.3067C73.1495 57.3067 80.0655 56.4379 83.7326 59.4723C86.7173 61.9428 85.4833 66.0059 85.4833 66.0059C85.4833 66.0059 89.4755 65.973 90.4667 69.6721C90.7865 70.8655 90.6135 72.0686 90.0955 73.0913C92.0572 73.2683 93.7944 74.6244 94.3339 76.6379C95.0246 79.2156 93.4953 81.8631 90.9177 82.5538L72.4845 88.4171C68.7971 89.5697 67.027 86.717 66.3364 84.1398C65.7965 82.1264 66.6224 80.0835 68.2324 78.9494ZM83.5927 61.9642C81.7313 59.2093 76.9861 59.729 76.9861 59.729C76.9861 59.729 78.1162 62.1068 73.8434 63.63C71.8526 64.3397 70.8001 65.4628 70.5425 66.5439C70.1643 68.1317 71.4004 69.809 72.4655 69.4906L84.4883 66.2633C84.4883 66.2633 84.9205 63.9292 83.5927 61.9642ZM84.8195 68.2462L69.5048 71.3378C67.7547 71.5066 66.8387 73.6066 67.2531 75.1535C67.6673 76.699 69.5064 77.7796 71.0528 77.3652L85.3805 73.0493C86.9273 72.6348 88.5134 71.4823 88.0996 69.9377C87.685 68.3904 86.3776 67.9463 84.8195 68.2462ZM73.1504 85.7154L90.7606 81.5071C92.8687 81.0505 93.6295 79.3772 93.1965 77.761C92.7627 76.1421 90.8921 75.1763 89.323 75.5967L72.6952 78.7861C70.0268 79.2685 68.5908 80.9324 69.0905 82.7973C69.6585 84.9169 71.2691 86.0563 73.1504 85.7154Z" fill="black"/>
</g>
</g>
<line x1="18.1104" y1="70.6532" x2="27.1104" y2="71.6532" stroke="black" stroke-width="2"/>
<line x1="22.1104" y1="56.0061" x2="31.1104" y2="57.0061" stroke="black" stroke-width="2"/>
<defs>
<filter id="filter0_b_447_2089" x="-80" y="-74.8318" width="295.298" height="295.298" filterUnits="userSpaceOnUse" color-interpolation-filters="sRGB">
<feFlood flood-opacity="0" result="BackgroundImageFix"/>
<feGaussianBlur in="BackgroundImageFix" stdDeviation="40"/>
<feComposite in2="SourceAlpha" operator="in" result="effect1_backgroundBlur_447_2089"/>
<feBlend mode="normal" in="SourceGraphic" in2="effect1_backgroundBlur_447_2089" result="shape"/>
</filter>
<filter id="filter1_b_447_2089" x="-70.2129" y="-76.072" width="295.298" height="295.298" filterUnits="userSpaceOnUse" color-interpolation-filters="sRGB">
<feFlood flood-opacity="0" result="BackgroundImageFix"/>
<feGaussianBlur in="BackgroundImageFix" stdDeviation="40"/>
<feComposite in2="SourceAlpha" operator="in" result="effect1_backgroundBlur_447_2089"/>
<feBlend mode="normal" in="SourceGraphic" in2="effect1_backgroundBlur_447_2089" result="shape"/>
</filter>
<clipPath id="clip0_447_2089">
<rect width="30.0209" height="30.0209" fill="white" transform="matrix(-0.965926 0.258819 0.258819 0.965926 88.0498 53.1928)"/>
</clipPath>
</defs>
</svg>
