<svg width="101" height="102" viewBox="0 0 101 102" fill="none" xmlns="http://www.w3.org/2000/svg">
<g filter="url(#filter0_b_447_1722)">
<rect x="6.92676" y="57.6803" width="67.0571" height="67.0571" rx="33.5286" transform="rotate(-54.2349 6.92676 57.6803)" fill="white"/>
<rect x="6.92676" y="57.6803" width="67.0571" height="67.0571" rx="33.5286" transform="rotate(-54.2349 6.92676 57.6803)" stroke="black" stroke-width="2"/>
<path d="M56.4704 47.2213C56.2576 45.5008 55.3973 43.8484 54.0408 42.8713C51.5277 41.0611 48.6061 41.7842 46.7436 44.37C44.8808 46.9561 44.7707 50.4171 47.752 52.5645C49.225 53.6255 50.9938 53.9229 52.5818 53.4719C51.6036 57.1336 54.6138 58.754 56.9405 61.0109L57.8074 59.8074L58.2091 59.2497L64.6439 50.3161L64.8641 50.0105L65.123 49.651C62.3499 47.927 59.0405 45.2932 56.4704 47.2213ZM48.3998 51.355C46.5919 50.0527 46.649 47.8032 47.9891 45.9428C49.3291 44.0823 51.9666 43.0089 54.013 44.4829C55.459 45.5244 55.9256 47.8102 54.5855 49.6706C53.1022 51.7294 50.2078 52.6573 48.3998 51.355ZM57.51 58.737C55.5328 57.322 53.1354 55.7541 53.3855 53.1771C54.1919 52.7974 54.9226 52.2032 55.5053 51.3943C55.9739 50.7437 56.2731 49.9954 56.4181 49.2106C58.4511 47.9265 59.6004 47.5791 63.2464 49.5292L57.51 58.737Z" fill="black"/>
</g>
<g filter="url(#filter1_b_447_1722)">
<rect x="0.539062" y="59.6348" width="67.0571" height="67.0571" rx="33.5286" transform="rotate(-54.2349 0.539062 59.6348)" fill="black"/>
<g clip-path="url(#clip0_447_1722)">
<path d="M53.748 49.3809C54.7942 50.1344 55.45 51.1235 55.7155 52.348C55.981 53.5726 55.8111 54.7925 55.2058 56.0077L57.0007 57.3006C57.0964 57.3695 57.1529 57.457 57.1701 57.5628C57.1873 57.6687 57.1614 57.7695 57.0925 57.8652L56.0951 59.2498C56.0311 59.3387 55.9432 59.3922 55.8315 59.4104C55.7197 59.4286 55.6194 59.4057 55.5305 59.3416L53.7356 58.0488C53.349 58.4557 52.9291 58.8153 52.4758 59.1275C52.0224 59.4396 51.6203 59.677 51.2695 59.8397C50.9186 60.0024 50.5723 60.1372 50.2305 60.2441C49.8887 60.351 49.646 60.4176 49.5024 60.444C49.3587 60.4704 49.2541 60.4859 49.1885 60.4905C48.9611 60.5033 48.816 60.4092 48.7532 60.2081L48.1295 58.1544C48.0956 58.0573 48.1112 57.9491 48.1763 57.8298C48.2365 57.7174 48.3264 57.6575 48.4459 57.6502L48.4812 57.6444C49.7147 57.3593 50.7404 56.8364 51.5585 56.0756C51.7954 55.862 52.005 55.6287 52.1872 55.3757C52.5862 54.8218 52.7901 54.2288 52.7989 53.5965C52.8078 52.9642 52.5422 52.4535 52.002 52.0644C51.8105 51.9265 51.5924 51.8473 51.3476 51.8267C51.1028 51.8061 50.8767 51.8172 50.6693 51.86C50.462 51.9028 50.1897 52.0104 49.8525 52.183C49.5154 52.3555 49.2434 52.5024 49.0367 52.6235C48.8301 52.7446 48.5219 52.9381 48.1124 53.2039C47.8109 53.3918 47.574 53.5405 47.4016 53.65C47.2293 53.7595 46.9872 53.9045 46.6755 54.085C46.3638 54.2655 46.1039 54.4028 45.8958 54.497C45.6878 54.5912 45.4273 54.6969 45.1143 54.8142C44.8014 54.9315 44.5243 55.0098 44.2832 55.049C44.042 55.0882 43.7674 55.1162 43.4592 55.1331C43.1511 55.15 42.8654 55.1286 42.6021 55.0687C42.3388 55.0089 42.0598 54.917 41.7649 54.7928C41.4701 54.6687 41.1825 54.5057 40.9021 54.3038C39.9585 53.6241 39.3725 52.6931 39.144 51.5108C38.9156 50.3285 39.0854 49.1268 39.6535 47.9055L37.8074 46.5757C37.7185 46.5117 37.665 46.4238 37.6468 46.312C37.6286 46.2003 37.6516 46.1 37.7156 46.0111L38.7129 44.6265C38.7819 44.5307 38.8693 44.4743 38.9751 44.4571C39.081 44.4399 39.1818 44.4657 39.2775 44.5347L41.0827 45.8349C41.4044 45.4747 41.7552 45.1536 42.1349 44.8715C42.5146 44.5894 42.8434 44.3745 43.1212 44.2267C43.399 44.0789 43.6836 43.9541 43.975 43.8524C44.2663 43.7507 44.4615 43.6888 44.5605 43.6667C44.6595 43.6445 44.7443 43.6277 44.8149 43.6162C45.0217 43.5887 45.1639 43.6651 45.2416 43.8457L46.1406 45.7551C46.2038 45.8836 46.2019 46.0017 46.1348 46.1092C46.0864 46.2197 45.996 46.2947 45.8636 46.3344C45.8283 46.3401 45.7515 46.3601 45.6334 46.3944C45.5152 46.4287 45.3285 46.4968 45.0734 46.5987C44.8183 46.7005 44.5649 46.8217 44.3131 46.9623C44.0612 47.1028 43.7889 47.2935 43.496 47.5343C43.2031 47.7751 42.9533 48.0391 42.7464 48.3263C42.2785 48.9758 42.0438 49.6116 42.0424 50.2337C42.0409 50.8557 42.2726 51.3342 42.7376 51.6691C42.9153 51.7971 43.1004 51.8863 43.2927 51.9365C43.485 51.9868 43.6995 51.9881 43.9362 51.9405C44.173 51.893 44.3831 51.8392 44.5665 51.7792C44.7499 51.7192 44.9938 51.6041 45.2982 51.4339C45.6025 51.2636 45.8438 51.1233 46.0221 51.0128C46.2003 50.9023 46.4667 50.7307 46.8212 50.498C47.219 50.2341 47.5262 50.0348 47.7427 49.9C47.9593 49.7652 48.2661 49.5915 48.6632 49.3791C49.0603 49.1666 49.3915 49.0131 49.6568 48.9187C49.9222 48.8242 50.2458 48.7354 50.6277 48.6522C51.0096 48.5689 51.3572 48.5441 51.6705 48.5777C51.9839 48.6112 52.323 48.6919 52.6879 48.8198C53.0527 48.9476 53.4061 49.1346 53.748 49.3809Z" fill="white"/>
</g>
</g>
<defs>
<filter id="filter0_b_447_1722" x="-73.0732" y="-76.7312" width="253.604" height="253.604" filterUnits="userSpaceOnUse" color-interpolation-filters="sRGB">
<feFlood flood-opacity="0" result="BackgroundImageFix"/>
<feGaussianBlur in="BackgroundImageFix" stdDeviation="40"/>
<feComposite in2="SourceAlpha" operator="in" result="effect1_backgroundBlur_447_1722"/>
<feBlend mode="normal" in="SourceGraphic" in2="effect1_backgroundBlur_447_1722" result="shape"/>
</filter>
<filter id="filter1_b_447_1722" x="-79.4609" y="-74.7767" width="253.604" height="253.604" filterUnits="userSpaceOnUse" color-interpolation-filters="sRGB">
<feFlood flood-opacity="0" result="BackgroundImageFix"/>
<feGaussianBlur in="BackgroundImageFix" stdDeviation="40"/>
<feComposite in2="SourceAlpha" operator="in" result="effect1_backgroundBlur_447_1722"/>
<feBlend mode="normal" in="SourceGraphic" in2="effect1_backgroundBlur_447_1722" result="shape"/>
</filter>
<clipPath id="clip0_447_1722">
<rect width="12.1345" height="22.6511" fill="white" transform="translate(34.6055 50.329) rotate(-54.2349)"/>
</clipPath>
</defs>
</svg>
