<svg width="150" height="150" viewBox="0 0 150 150" fill="none" xmlns="http://www.w3.org/2000/svg">
<g filter="url(#filter0_b_447_1728)">
<rect width="99.0447" height="99.0447" rx="49.5223" transform="matrix(-0.751768 -0.659427 -0.659427 0.751768 139.771 69.7991)" fill="white"/>
<rect width="99.0447" height="99.0447" rx="49.5223" transform="matrix(-0.751768 -0.659427 -0.659427 0.751768 139.771 69.7991)" stroke="black" stroke-width="2"/>
<path d="M66.5745 72.2111C66.3954 70.4867 66.8626 68.6833 67.965 67.4265C70.0074 65.0981 73.0167 65.1466 75.4124 67.248C77.8084 69.3497 78.693 72.6976 76.2702 75.4597C75.0731 76.8244 73.4162 77.5115 71.7675 77.4286C73.5431 80.7771 70.9737 83.0322 69.2133 85.7539L68.0983 84.7759L67.5816 84.3227L59.3048 77.0625L59.0216 76.8141L58.6886 76.5219C61.0036 74.2192 63.637 70.9095 66.5745 72.2111ZM75.3672 74.4266C76.8365 72.7516 76.2756 70.5723 74.552 69.0604C72.8283 67.5484 70.0171 67.0947 68.354 68.9907C67.1789 70.3304 67.2376 72.6626 68.9612 74.1745C70.8691 75.8475 73.8979 76.1016 75.3672 74.4266ZM68.1477 83.666C69.7566 81.8431 71.7407 79.7769 70.9182 77.3219C70.0471 77.1329 69.2015 76.7181 68.4521 76.0607C67.8494 75.532 67.3898 74.87 67.0722 74.1377C64.8027 73.3431 63.6047 73.2627 60.4899 75.9818L68.1477 83.666Z" fill="black"/>
</g>
<g filter="url(#filter1_b_447_1728)">
<rect width="99.0447" height="99.0447" rx="49.5223" transform="matrix(-0.751768 -0.659427 -0.659427 0.751768 149.612 70.4932)" fill="white"/>
<rect width="99.0447" height="99.0447" rx="49.5223" transform="matrix(-0.751768 -0.659427 -0.659427 0.751768 149.612 70.4932)" stroke="black" stroke-width="2"/>
<g clip-path="url(#clip0_447_1728)">
<path d="M86.0366 93.6363C96.5887 90.0302 102.304 78.7977 98.8012 68.5475C95.2982 58.2974 83.9038 52.9121 73.3517 56.5182C63.3376 59.9404 57.682 70.226 60.1192 80.0258L85.374 71.3951L86.4395 74.5131L61.1848 83.1437C65.2548 92.3855 76.0243 97.0579 86.0366 93.6363Z" fill="black"/>
</g>
</g>
<line x1="31.0995" y1="43.005" x2="41.0995" y2="44.005" stroke="black" stroke-width="2"/>
<line x1="38.1104" y1="37.0062" x2="47.1104" y2="38.0062" stroke="black" stroke-width="2"/>
<line x1="25.1104" y1="54.0062" x2="34.1104" y2="55.0062" stroke="black" stroke-width="2"/>
<line x1="21.1104" y1="72.0062" x2="30.1104" y2="73.0062" stroke="black" stroke-width="2"/>
<defs>
<filter id="filter0_b_447_1728" x="-80" y="-75.5137" width="299.771" height="299.771" filterUnits="userSpaceOnUse" color-interpolation-filters="sRGB">
<feFlood flood-opacity="0" result="BackgroundImageFix"/>
<feGaussianBlur in="BackgroundImageFix" stdDeviation="40"/>
<feComposite in2="SourceAlpha" operator="in" result="effect1_backgroundBlur_447_1728"/>
<feBlend mode="normal" in="SourceGraphic" in2="effect1_backgroundBlur_447_1728" result="shape"/>
</filter>
<filter id="filter1_b_447_1728" x="-70.1592" y="-74.8195" width="299.771" height="299.771" filterUnits="userSpaceOnUse" color-interpolation-filters="sRGB">
<feFlood flood-opacity="0" result="BackgroundImageFix"/>
<feGaussianBlur in="BackgroundImageFix" stdDeviation="40"/>
<feComposite in2="SourceAlpha" operator="in" result="effect1_backgroundBlur_447_1728"/>
<feBlend mode="normal" in="SourceGraphic" in2="effect1_backgroundBlur_447_1728" result="shape"/>
</filter>
<clipPath id="clip0_447_1728">
<rect width="48.3784" height="47.0709" fill="white" transform="translate(49.2266 60.6176) rotate(-18.8675)"/>
</clipPath>
</defs>
</svg>
