<svg width="65" height="65" viewBox="0 0 65 65" fill="none" xmlns="http://www.w3.org/2000/svg">
<g clip-path="url(#clip0_447_1843)">
<path fill-rule="evenodd" clip-rule="evenodd" d="M49.8563 45.0862C49.5193 40.9442 48.9813 34.9572 48.4813 29.0862C47.9613 22.9812 46.6533 17.1762 41.9483 14.1862L49.8563 8.31118L40.8483 11.2942L44.0493 3.21418L35.4833 10.3162L32.4823 0.586182L31.7103 7.72218L27.9813 1.33618L29.1223 10.7032L20.2313 3.96118L26.9753 13.1012C22.3673 14.7282 19.3663 18.3392 18.4813 24.0862C17.7313 28.9612 17.1073 36.7112 15.4813 48.5862C13.5433 62.7382 28.1973 64.5862 36.4813 64.5862C52.8563 64.5862 50.5023 53.0272 49.8563 45.0862ZM35.2313 15.3362C37.4283 15.3362 39.4433 15.8962 41.0303 17.2642L33.9393 21.2352L28.9573 16.8192C31.0073 15.8072 33.2153 15.3362 35.2313 15.3362ZM44.9053 44.1672L34.6913 37.7272L43.7973 32.3692L44.6593 32.9342C44.7573 36.1542 44.8653 40.3542 44.9053 44.1672ZM31.5393 35.7392L24.7273 31.4442L33.2183 25.4392L39.9853 29.8712L31.5393 35.7392ZM42.0583 28.4302L36.2573 23.2892L42.4553 18.9062C43.6283 20.6912 44.3563 23.2492 44.4573 26.7632L42.0583 28.4302ZM30.0903 23.3902L21.5803 28.1552C21.9143 24.6512 23.1423 21.9522 24.8603 19.9652L30.0903 23.3902ZM21.5643 33.6812L22.8043 32.8042L29.0323 37.4822L21.8113 42.5002C21.7523 40.3952 21.8913 45.3432 21.5643 33.6812ZM23.6253 57.4392C22.6723 56.1262 22.1503 54.5992 22.1063 53.0282C22.0643 51.5322 22.0283 50.2432 21.9973 49.1222L30.1243 53.4882L23.6253 57.4392ZM21.9243 46.5282C21.9113 46.0582 21.8993 45.6402 21.8883 45.2602L31.7013 39.4862L41.2983 46.6932L33.9773 51.1442L21.9243 46.5282ZM36.2313 61.0862C31.4343 62.0052 27.7363 61.0482 25.3253 59.1732L33.6283 55.3692L40.8463 59.2472C39.6183 60.1012 38.0903 60.7302 36.2313 61.0862ZM44.0493 55.1652V55.0022L38.8103 52.9952L44.8863 50.2122C44.8793 50.4922 44.8713 50.7652 44.8633 51.0222C44.8103 52.5262 44.5433 53.9172 44.0493 55.1652Z" fill="black"/>
</g>
<defs>
<clipPath id="clip0_447_1843">
<rect width="64" height="64" fill="white" transform="translate(0.981445 0.586182)"/>
</clipPath>
</defs>
</svg>
