<svg width="65" height="65" viewBox="0 0 65 65" fill="none" xmlns="http://www.w3.org/2000/svg">
<g clip-path="url(#clip0_447_1850)">
<path d="M62.7064 36.2495L64.7324 28.1435L56.6754 28.1435C56.2004 23.5445 54.3394 19.5845 51.5104 16.4825L56.7954 11.4245L53.4184 7.04449L47.1334 12.8365C44.0294 10.8785 40.3524 9.62649 36.3624 9.22049L36.3624 0.448486L28.2564 2.47449L28.6124 9.43949C25.0384 9.98849 21.7704 11.1515 19.0094 12.8855L11.7124 5.58849L7.41341 12.7535L13.4734 18.1185C11.5654 20.8785 10.4064 24.2365 10.2354 28.1435L0.899414 28.1435L2.75741 32.8725L10.6684 33.3675C11.3434 36.5955 12.7434 39.8045 14.6644 42.7595L9.30941 47.6945L11.7534 54.5305L18.7334 47.8505C22.2324 51.4515 26.5054 54.2375 30.9664 55.5375L31.4654 64.2835L36.3624 63.1015L36.3624 56.3465C41.8584 56.3465 46.3844 53.9715 49.7704 50.2545L54.6004 54.5295L58.5794 52.4565L52.5784 46.4555C54.4484 43.3275 55.7234 39.6905 56.3484 35.8985L62.7064 36.2495ZM32.9854 52.1235C22.0504 52.1235 14.7404 42.0645 14.7404 32.2385C14.7404 18.2855 23.5094 12.7035 34.4444 12.7035C45.3804 12.7035 54.2214 23.9815 54.2214 33.8075C54.2214 43.6345 43.9204 52.1235 32.9854 52.1235ZM45.2354 30.8275C43.9064 25.3845 39.5244 22.1005 33.6944 22.1005C27.8624 22.1005 23.1354 25.3275 23.1354 31.3905C23.1354 37.4545 28.5614 42.6545 34.3914 42.6545C40.2214 42.6545 47.4024 39.6855 45.2354 30.8275ZM34.4874 37.8015C29.6794 37.8015 27.0464 33.6955 27.0464 30.1085C27.0464 25.2915 32.1614 24.1005 34.4874 24.1005C39.5874 24.1005 41.7084 29.1525 41.7084 31.3125C41.7084 34.8935 39.7724 37.8015 34.4874 37.8015Z" fill="black"/>
</g>
<defs>
<clipPath id="clip0_447_1850">
<rect width="64" height="64" fill="white" transform="translate(0.732422 0.448486)"/>
</clipPath>
</defs>
</svg>
