<svg width="65" height="65" viewBox="0 0 65 65" fill="none" xmlns="http://www.w3.org/2000/svg">
<g clip-path="url(#clip0_447_1822)">
<path d="M28.6699 64.1095C28.6699 64.1095 28.63 64.1333 28.5842 64.1642C28.6101 64.1463 28.632 64.1313 28.6699 64.1095Z" fill="black"/>
<path d="M64.4847 20.2261C64.4455 9.72614 56.9111 1.18571 46.4242 1.14437C37.7023 1.10998 33.402 8.88736 31.4347 12.7798C30.46 10.8198 25.4605 5.06395 16.4568 5.02846C6.96932 4.99106 0.486721 10.4746 0.525965 20.9746C0.593986 39.1739 17.9928 39.7928 28.6704 64.1094C32.0407 62.0756 35.0775 60.1084 37.8457 58.1973C40.3654 60.1163 43.3292 62.1371 46.832 64.2691C53.5143 48.8388 64.5905 48.5333 64.5472 36.9447C64.5378 34.4242 63.9404 32.3547 62.878 30.7517C64.2771 26.7109 64.4959 23.2108 64.4847 20.2261ZM30.353 59.4725C21.4882 43.9359 6.57473 34.9852 6.5276 22.377C6.49367 13.2988 11.9523 8.99291 19.1031 9.0211C25.1835 9.04507 29.7912 15.0356 30.5733 18.6857C33.1781 13.6982 41.3594 7.86815 48.8226 9.12225C53.5717 9.92041 58.4686 14.9535 58.4938 21.6863C58.4996 23.2322 58.3226 25.0896 57.8408 27.1908C56.7643 26.8834 55.5903 26.7167 54.3271 26.7117C48.5944 26.6891 45.4379 30.3287 44.827 31.572C43.5554 29.0836 40.7805 24.1099 35.2277 24.088C28.5497 24.0617 23.7937 29.4619 23.8187 36.1468C23.8359 40.7534 24.6547 47.2492 35.2435 56.1239C33.7116 57.2335 32.0868 58.3507 30.353 59.4725ZM45.5659 59.4824C31.8898 50.5656 29.5331 42.2577 29.5173 38.0223C29.5031 34.2211 32.2469 31.4013 34.9257 30.9716C39.1336 30.2978 43.7783 33.625 45.27 36.4534C45.696 34.396 48.2709 31.0343 51.7059 31.0478C55.7415 31.0637 58.8428 33.5203 58.862 38.6442C58.8886 45.7623 50.5053 50.749 45.5659 59.4824Z" fill="black"/>
<path d="M28.707 64.1936C28.7554 64.3029 28.8179 64.4452 28.707 64.1936V64.1936Z" fill="black"/>
<path d="M28.5273 64.1939C28.3947 64.2764 28.4505 64.2406 28.5273 64.1939V64.1939Z" fill="black"/>
<path d="M46.808 64.321C46.7396 64.4828 46.7783 64.3909 46.808 64.321V64.321Z" fill="black"/>
</g>
<defs>
<clipPath id="clip0_447_1822">
<rect width="64" height="64" fill="white" transform="matrix(0.999414 0.00393982 0.00373967 1.00057 0.448242 0.192627)"/>
</clipPath>
</defs>
</svg>
