<svg width="64" height="65" viewBox="0 0 64 65" fill="none" xmlns="http://www.w3.org/2000/svg">
<g clip-path="url(#clip0_447_1834)">
<path d="M56.376 26.0337C55.53 26.0837 54.618 26.1367 53.657 26.1937C53.245 20.6047 50.307 15.5187 44.667 15.5187C43.756 15.5187 42.803 15.6417 41.843 15.8487C41.846 15.7387 41.86 15.6297 41.86 15.5187C41.86 9.41768 38.916 4.47168 32.813 4.47168C26.712 4.47168 19.835 9.63468 19.835 15.7357C19.835 15.9417 19.824 15.8357 19.819 15.7337C19.069 15.5947 18.315 15.5187 17.575 15.5187C11.474 15.5187 7.529 18.4647 7.529 24.5647C7.529 25.3397 7.817 27.5407 8.268 28.8567C7.198 28.9197 6.183 28.9797 5.25 29.0337C5.25 41.6087 15.917 50.4687 28.223 52.2577L29.515 61.1517L17.766 62.1587L18.75 64.4707H42.5L44.75 59.8457L31.578 60.9747L33.534 52.5797C47.251 52.2237 56.376 41.7577 56.376 26.0337ZM51.167 26.3397C46.599 26.6077 41.141 26.9277 35.492 27.2597C34.75 24.8877 37.041 18.7227 41.745 18.3677C46.512 18.0087 50.471 22.1637 51.167 26.3397ZM30.621 8.30368C36.667 8.22068 40.167 12.6417 40.167 16.2207C36.254 17.7707 32.019 21.1697 30.813 24.9707C30 21.3037 27.852 18.4647 24.861 17.2477C22.583 13.6377 24.12 8.39368 30.621 8.30368ZM10.167 27.2217C10.167 22.1137 15.309 18.9717 20.417 18.9717C25.525 18.9717 28.667 22.1137 28.667 27.2217C28.667 27.3707 28.643 27.5137 28.635 27.6617C22.04 28.0487 15.569 28.4287 10.301 28.7377C10.217 28.2437 10.167 27.7397 10.167 27.2217ZM10.25 30.4497H54.188C53.417 42.0577 44.44 49.7097 32.938 49.7097C21.517 49.7097 10.25 40.8047 10.25 30.4497Z" fill="black"/>
<path d="M19.8188 15.7336C19.8238 15.7346 19.8298 15.7346 19.8348 15.7356C19.8128 15.5356 19.8128 15.6336 19.8188 15.7336Z" fill="black"/>
</g>
<defs>
<clipPath id="clip0_447_1834">
<rect width="64" height="64" fill="white" transform="translate(0 0.470703)"/>
</clipPath>
</defs>
</svg>
