<svg width="54" height="54" viewBox="0 0 54 54" fill="none" xmlns="http://www.w3.org/2000/svg">
<g filter="url(#filter0_b_538_2114)">
<rect x="3.29688" y="35.7822" width="37.993" height="37.993" rx="18.9965" transform="rotate(-66.6211 3.29688 35.7822)" fill="white"/>
<rect x="3.29688" y="35.7822" width="37.993" height="37.993" rx="18.9965" transform="rotate(-66.6211 3.29688 35.7822)" stroke="black" stroke-width="2"/>
<path d="M30.3386 22.5122C29.7617 20.8773 28.567 19.4479 27.0324 18.7845C24.1895 17.5555 21.4911 18.8885 20.2265 21.8136C18.9619 24.739 19.5967 28.1431 22.9692 29.6011C24.6355 30.3214 26.4269 30.2325 27.8812 29.4514C27.7112 33.2376 30.999 34.1746 33.7556 35.8799L34.3441 34.5185L34.6169 33.8876L38.9857 23.7817L39.1352 23.436L39.311 23.0293C36.2326 21.9403 32.4353 20.0777 30.3386 22.5122ZM23.3425 28.2807C21.2974 27.3966 20.8706 25.1871 21.7804 23.0826C22.6902 20.978 25.0361 19.3638 27.351 20.3646C28.9867 21.0717 29.9328 23.2042 29.023 25.3087C28.0158 27.6377 25.3877 29.1649 23.3425 28.2807ZM33.8241 33.5368C31.5893 32.5788 28.9115 31.5617 28.603 28.991C29.3091 28.4471 29.8955 27.7101 30.291 26.7951C30.6092 26.0591 30.7409 25.264 30.7142 24.4663C32.4245 22.776 33.4725 22.1902 37.4519 23.3129L33.8241 33.5368Z" fill="black"/>
</g>
<g filter="url(#filter1_b_538_2114)">
<rect y="37.6399" width="37.993" height="37.993" rx="18.9965" transform="rotate(-66.6211 0 37.6399)" fill="white"/>
<rect y="37.6399" width="37.993" height="37.993" rx="18.9965" transform="rotate(-66.6211 0 37.6399)" stroke="black" stroke-width="2"/>
<g clip-path="url(#clip0_538_2114)">
<path d="M26.9642 26.3341C26.9516 26.3337 26.9448 26.3335 26.9414 26.3335C26.9486 26.3335 26.9642 26.3341 26.9642 26.3341Z" fill="black"/>
<path d="M26.9421 26.3335C26.9369 26.3332 26.9377 26.3332 26.9421 26.3335V26.3335Z" fill="black"/>
<path d="M29.4265 29.7624C29.7415 29.3983 29.9388 28.922 29.9388 28.3948C29.9388 26.7233 28.5449 26.3346 28.5449 26.3346C28.5449 26.3346 29.8931 23.4499 25.1593 23.4499C23.3402 23.4499 25.1593 21.3896 25.1593 21.3896C25.1593 21.3896 22.3126 21.7951 21.1761 23.4499C20.2512 24.797 21.1761 26.3346 21.1761 26.3346C21.1761 26.3346 19.5828 26.7617 19.5828 28.3948C19.5828 28.9218 19.7801 29.3983 20.0955 29.7624C19.3332 30.0518 18.7861 30.8022 18.7861 31.6912C18.7861 32.8293 19.6776 33.7511 20.7777 33.7511L28.7435 34.1318C30.3348 34.1996 30.7353 32.8291 30.7353 31.6912C30.7355 30.8022 30.1886 30.0518 29.4265 29.7624ZM21.4977 24.4609C21.945 23.1206 23.8899 22.811 23.8899 22.811C23.8899 22.811 23.6937 23.9152 25.5576 24.0711C26.4261 24.1437 26.965 24.4902 27.183 24.907C27.503 25.5194 27.1897 26.3468 26.7316 26.3332L21.5998 26.3308C21.5998 26.3308 21.1786 25.417 21.4977 24.4609ZM21.6794 27.1842L28.1077 26.7673C28.8226 26.6436 29.4114 27.4076 29.4114 28.0906C29.4114 28.7729 28.7944 29.4211 28.1344 29.4211L21.9685 29.2246C21.3084 29.2246 20.5538 28.925 20.5538 28.243C20.5538 27.5599 21.027 27.2326 21.6794 27.1842ZM28.1901 33.0923L20.7286 33.3026C19.8404 33.3472 19.3589 32.7418 19.3589 32.0283C19.3589 31.3135 20.0007 30.7092 20.6704 30.7092L27.632 30.1877C28.746 30.0918 29.4954 30.6187 29.4954 31.4421C29.4954 32.378 28.9756 33.0251 28.1901 33.0923Z" fill="black"/>
</g>
</g>
<defs>
<filter id="filter0_b_538_2114" x="-76.7031" y="-79.0916" width="209.95" height="209.95" filterUnits="userSpaceOnUse" color-interpolation-filters="sRGB">
<feFlood flood-opacity="0" result="BackgroundImageFix"/>
<feGaussianBlur in="BackgroundImageFix" stdDeviation="40"/>
<feComposite in2="SourceAlpha" operator="in" result="effect1_backgroundBlur_538_2114"/>
<feBlend mode="normal" in="SourceGraphic" in2="effect1_backgroundBlur_538_2114" result="shape"/>
</filter>
<filter id="filter1_b_538_2114" x="-80" y="-77.2339" width="209.95" height="209.95" filterUnits="userSpaceOnUse" color-interpolation-filters="sRGB">
<feFlood flood-opacity="0" result="BackgroundImageFix"/>
<feGaussianBlur in="BackgroundImageFix" stdDeviation="40"/>
<feComposite in2="SourceAlpha" operator="in" result="effect1_backgroundBlur_538_2114"/>
<feBlend mode="normal" in="SourceGraphic" in2="effect1_backgroundBlur_538_2114" result="shape"/>
</filter>
<clipPath id="clip0_538_2114">
<rect width="12.3762" height="12.8029" fill="white" transform="translate(18.7871 21.3396)"/>
</clipPath>
</defs>
</svg>
