<svg width="150" height="150" viewBox="0 0 150 150" fill="none" xmlns="http://www.w3.org/2000/svg">
<g filter="url(#filter0_b_538_2130)">
<rect width="99.0447" height="99.0447" rx="49.5223" transform="matrix(-0.751768 -0.659427 -0.659427 0.751768 139.771 69.7991)" fill="white"/>
<rect width="99.0447" height="99.0447" rx="49.5223" transform="matrix(-0.751768 -0.659427 -0.659427 0.751768 139.771 69.7991)" stroke="black" stroke-width="2"/>
<path d="M66.5745 72.2111C66.3954 70.4868 66.8626 68.6834 67.965 67.4266C70.0074 65.0982 73.0167 65.1467 75.4124 67.2481C77.8084 69.3498 78.693 72.6977 76.2702 75.4598C75.0731 76.8245 73.4162 77.5116 71.7675 77.4287C73.5431 80.7771 70.9737 83.0322 69.2133 85.754L68.0983 84.776L67.5816 84.3227L59.3048 77.0626L59.0216 76.8142L58.6886 76.522C61.0036 74.2193 63.637 70.9095 66.5745 72.2111ZM75.3672 74.4267C76.8365 72.7516 76.2756 70.5724 74.552 69.0604C72.8283 67.5485 70.0171 67.0948 68.354 68.9908C67.1789 70.3304 67.2376 72.6626 68.9612 74.1746C70.8691 75.8475 73.8979 76.1017 75.3672 74.4267ZM68.1477 83.6661C69.7566 81.8431 71.7407 79.777 70.9182 77.3219C70.0471 77.133 69.2015 76.7181 68.4521 76.0608C67.8494 75.532 67.3898 74.87 67.0722 74.1378C64.8027 73.3431 63.6047 73.2627 60.4899 75.9819L68.1477 83.6661Z" fill="black"/>
</g>
<g filter="url(#filter1_b_538_2130)">
<rect width="99.0447" height="99.0447" rx="49.5223" transform="matrix(-0.751768 -0.659427 -0.659427 0.751768 149.612 70.4932)" fill="white"/>
<rect width="99.0447" height="99.0447" rx="49.5223" transform="matrix(-0.751768 -0.659427 -0.659427 0.751768 149.612 70.4932)" stroke="black" stroke-width="2"/>
<g clip-path="url(#clip0_538_2130)">
<path d="M75.6372 70.8886C75.6678 70.8938 75.6842 70.8966 75.6924 70.8982C75.6751 70.8948 75.6372 70.8886 75.6372 70.8886Z" fill="black"/>
<path d="M75.6921 70.8977C75.7038 70.8995 75.7019 70.8992 75.6921 70.8977V70.8977Z" fill="black"/>
<path d="M68.2112 77.6068C67.6285 76.6204 67.3772 75.4316 67.6185 74.2194C68.3836 70.3752 71.8775 70.1413 71.8775 70.1413C71.8775 70.1413 69.9904 62.8689 81.2525 65.1104C85.5802 65.9717 82.1955 60.3723 82.1955 60.3723C82.1955 60.3723 88.7823 62.6527 90.7286 66.9964C92.3125 70.5323 89.4083 73.6303 89.4083 73.6303C89.4083 73.6303 93.0032 75.3669 92.2557 79.1228C92.0145 80.3346 91.3272 81.337 90.4102 82.025C92.0912 83.0516 93.0492 85.0363 92.6423 87.0808C92.1214 89.698 89.5787 91.3958 86.9614 90.8749L67.8362 87.9787C64.0194 87.3812 63.6939 84.0397 64.2148 81.423C64.6212 79.3784 66.2657 77.9117 68.2112 77.6068ZM89.5008 69.1692C89.0502 65.8751 84.5647 64.242 84.5647 64.242C84.5647 64.242 84.5262 66.8744 80.0205 66.3502C77.9211 66.106 76.4804 66.6476 75.7711 67.5032C74.7294 68.7599 75.096 70.811 76.1921 70.9966L88.4021 73.421C88.4021 73.421 89.8223 71.5189 89.5008 69.1692ZM87.8219 75.3458L72.7197 71.3434C71.0754 70.7206 69.3249 72.1987 69.0123 73.7693C68.7 75.3385 69.8714 77.1213 71.4415 77.4338L86.2002 79.9015C87.7708 80.2141 89.7031 79.8822 90.0153 78.3139C90.3279 76.7428 89.352 75.7661 87.8219 75.3458ZM69.6287 85.8503L87.2836 89.8668C89.3762 90.3899 90.7988 89.2258 91.1254 87.5848C91.4525 85.941 90.2022 84.2473 88.6091 83.9302L72.2859 79.4346C69.6794 78.6867 67.6555 79.5437 67.2786 81.4373C66.8503 83.5894 67.7907 85.3238 69.6287 85.8503Z" fill="black"/>
</g>
</g>
<line x1="31.0995" y1="43.005" x2="41.0995" y2="44.005" stroke="black" stroke-width="2"/>
<line x1="38.1104" y1="37.0061" x2="47.1104" y2="38.0061" stroke="black" stroke-width="2"/>
<line x1="25.1104" y1="54.0061" x2="34.1104" y2="55.0061" stroke="black" stroke-width="2"/>
<line x1="21.1104" y1="72.0061" x2="30.1104" y2="73.0061" stroke="black" stroke-width="2"/>
<defs>
<filter id="filter0_b_538_2130" x="-80" y="-75.5137" width="299.771" height="299.771" filterUnits="userSpaceOnUse" color-interpolation-filters="sRGB">
<feFlood flood-opacity="0" result="BackgroundImageFix"/>
<feGaussianBlur in="BackgroundImageFix" stdDeviation="40"/>
<feComposite in2="SourceAlpha" operator="in" result="effect1_backgroundBlur_538_2130"/>
<feBlend mode="normal" in="SourceGraphic" in2="effect1_backgroundBlur_538_2130" result="shape"/>
</filter>
<filter id="filter1_b_538_2130" x="-70.1592" y="-74.8196" width="299.771" height="299.771" filterUnits="userSpaceOnUse" color-interpolation-filters="sRGB">
<feFlood flood-opacity="0" result="BackgroundImageFix"/>
<feGaussianBlur in="BackgroundImageFix" stdDeviation="40"/>
<feComposite in2="SourceAlpha" operator="in" result="effect1_backgroundBlur_538_2130"/>
<feBlend mode="normal" in="SourceGraphic" in2="effect1_backgroundBlur_538_2130" result="shape"/>
</filter>
<clipPath id="clip0_538_2130">
<rect width="30.0209" height="30.0209" fill="white" transform="matrix(-0.980764 -0.195197 -0.195197 0.980764 97.3779 63.2744)"/>
</clipPath>
</defs>
</svg>
