<svg width="65" height="65" viewBox="0 0 65 65" fill="none" xmlns="http://www.w3.org/2000/svg">
<g clip-path="url(#clip0_533_1667)">
<path d="M58.3231 60.5533L8.31605 64.6143C5.96805 64.7273 3.85805 64.4253 4.41005 61.5673L9.40505 4.69728C9.40505 2.45328 11.192 0.634277 13.3981 0.634277H50.3361C52.5431 0.634277 54.3301 2.45328 54.3301 4.69728L62.3161 56.4893C62.3161 58.7343 60.5281 60.5533 58.3231 60.5533ZM59.3211 56.4893L49.3371 4.69728C48.784 2.66628 48.784 2.66628 46.8581 2.66628L15.5901 5.71228C13.8041 5.96928 12.3161 6.16628 12.3161 7.74328L10.3161 56.4923C10.1611 59.0233 12.8351 58.5233 13.3161 58.5233H57.3241C59.355 58.5233 59.6071 57.2343 59.3211 56.4893Z" fill="black"/>
<path d="M28.1009 44.7824C27.8999 44.9854 27.6329 45.0774 27.3709 45.0654C27.1059 45.0774 15.5029 35.8214 15.5029 35.8214L19.6909 30.6344L27.4409 41.3844L42.3319 20.8414C42.7089 20.4584 43.5239 20.1124 44.1489 20.5184L47.3989 23.6344C47.7759 24.0184 47.5949 24.7874 47.2179 25.1704L28.1009 44.7824Z" fill="black"/>
</g>
<defs>
<clipPath id="clip0_533_1667">
<rect width="64" height="64" fill="white" transform="translate(0.316406 0.634277)"/>
</clipPath>
</defs>
</svg>
