<svg width="65" height="65" viewBox="0 0 65 65" fill="none" xmlns="http://www.w3.org/2000/svg">
<g clip-path="url(#clip0_533_1657)">
<path d="M34.5917 0.160889C16.9837 0.160889 0.552734 15.5139 0.552734 33.1199C0.552734 50.7289 18.0617 63.9249 35.6707 63.9249C53.2777 63.9249 64.3167 51.8069 64.3167 34.1989C64.3167 16.5919 52.1997 0.160889 34.5917 0.160889ZM32.4357 60.9459C17.6627 60.9459 6.76573 50.0489 6.76573 35.2759C6.76573 20.5049 19.8197 5.29589 34.5927 5.29589C49.3637 5.29589 60.2617 17.2699 60.2617 32.0429C60.2587 46.8139 47.2067 60.9459 32.4357 60.9459Z" fill="black"/>
<path d="M32.7472 11.7659C21.7212 11.7659 13.7832 20.7039 13.7832 31.7299C13.7832 42.7549 23.7212 52.6939 34.7482 52.6939C45.7722 52.6939 53.7112 44.7559 53.7112 33.7289C53.7112 22.7039 43.7722 11.7659 32.7472 11.7659ZM33.7322 46.8449C24.8492 46.8449 16.6772 40.6159 16.6772 31.7309C16.6772 22.8479 24.8492 16.6179 33.7322 16.6179C42.6162 16.6179 49.8162 22.8479 49.8162 31.7309C49.8162 40.6139 42.6162 46.8449 33.7322 46.8449Z" fill="black"/>
</g>
<defs>
<clipPath id="clip0_533_1657">
<rect width="64" height="64" fill="white" transform="translate(0.316406 0.160889)"/>
</clipPath>
</defs>
</svg>
