<svg width="65" height="65" viewBox="0 0 65 65" fill="none" xmlns="http://www.w3.org/2000/svg">
<g clip-path="url(#clip0_533_1645)">
<path d="M36.3164 0.687622C18.6434 0.687622 0.316406 18.0146 0.316406 35.6876C0.316406 53.3606 12.6434 64.6876 30.3164 64.6876C47.9904 64.6876 64.3164 53.3606 64.3164 35.6876C64.3164 18.0146 53.9904 0.687622 36.3164 0.687622ZM30.3164 62.0336C15.3124 62.0336 5.15041 48.8726 5.15041 33.8676C5.15041 18.8636 17.3124 6.70162 32.3164 6.70162C47.3204 6.70162 59.4824 14.8636 59.4824 29.8676C59.4824 47.1876 47.8164 62.0336 30.3164 62.0336Z" fill="black"/>
<path d="M38.15 30.8546C39.312 25.8196 34.568 24.3546 31.209 24.3546C27.849 24.3546 25.126 26.6616 25.126 30.0216C25.126 33.3816 27.85 37.3546 31.209 37.3546C34.568 37.3546 37.15 35.1876 38.15 30.8546Z" fill="black"/>
<path fill-rule="evenodd" clip-rule="evenodd" d="M26.5795 48.8587C36.5505 41.6137 37.2595 53.0237 46.1565 50.6337C51.3025 49.2537 51.3175 41.0327 51.3175 33.0127C51.3175 21.8917 42.0735 12.8777 30.6715 12.8737C11.8165 12.8677 17.2105 22.8537 12.6045 33.0127C7.46548 44.3547 16.3315 56.3027 26.5795 48.8587ZM25.6495 43.0207C35.2915 36.7757 37.6545 47.9377 43.8165 47.9377C48.0665 47.9377 47.9835 37.5757 47.9835 33.7707C47.9835 27.0207 43.3205 16.8427 33.1805 17.4167C17.4165 18.3087 18.8165 27.3157 15.6495 33.0207C11.1615 41.1107 16.8995 48.6877 25.6495 43.0207Z" fill="black"/>
</g>
<defs>
<clipPath id="clip0_533_1645">
<rect width="64" height="64" fill="white" transform="translate(0.316406 0.687622)"/>
</clipPath>
</defs>
</svg>
