<svg width="65" height="65" viewBox="0 0 65 65" fill="none" xmlns="http://www.w3.org/2000/svg">
<g clip-path="url(#clip0_533_1677)">
<path d="M64.3164 19.2326C58.4234 20.3336 52.7754 20.9426 46.9234 21.3046V13.7656C46.9234 6.98255 33.5914 3.73255 22.4054 4.25655C9.56641 4.85755 0.316406 10.3906 0.316406 15.2226C0.316406 15.3476 0.343406 15.4676 0.352406 15.5906H0.316406V54.5736C0.316406 58.3096 13.9384 62.1076 25.9834 62.1076C37.5244 62.1076 47.6914 60.7326 58.4614 58.8186L58.8444 56.2986H58.8344L64.3164 19.2326ZM6.17341 13.1866C6.81841 9.72555 14.5664 6.85755 22.5724 7.11655C32.3124 7.43155 40.2804 10.6066 41.2464 13.8506C42.3094 17.4336 34.7114 21.2746 24.6504 21.2746C14.4834 21.2746 5.48341 16.8906 6.17341 13.1866ZM43.9414 18.1076L43.3164 21.6076C41.4344 21.6886 38.9044 21.6666 36.9454 21.7156C39.3954 20.8956 42.5364 19.4826 43.9414 18.1076ZM51.8164 57.2326C45.6764 58.3066 38.0254 58.6955 30.8364 58.3596L28.9534 52.8745L25.5894 51.6076L25.9644 58.0126C23.2294 57.7456 20.6364 57.3616 18.3164 56.8576C9.69141 54.9826 6.95841 51.6076 6.95841 51.6076L3.19141 20.1076C7.49341 23.7306 17.2524 25.7026 28.3444 26.1236L26.5664 34.2746L31.3074 32.8756V26.1996C41.1784 26.3286 51.7904 25.2816 60.4024 23.1126L51.8164 57.2326ZM23.6754 16.8906C17.2444 17.2066 15.4164 15.5446 15.9874 13.7656C16.5154 12.1216 18.9784 10.4196 23.6754 10.6406C27.3504 10.8136 31.5314 12.3486 31.1164 14.0936C30.8164 15.3576 27.7334 16.6906 23.6754 16.8906ZM26.5664 38.6416L31.3074 39.5266L28.9534 47.1216L26.1664 47.8896L26.5664 38.6416Z" fill="black"/>
</g>
<defs>
<clipPath id="clip0_533_1677">
<rect width="64" height="64" fill="white" transform="translate(0.316406 0.107666)"/>
</clipPath>
</defs>
</svg>
